<svg width="120" height="120" viewBox="0 0 120 120" fill="none" xmlns="http://www.w3.org/2000/svg">
  <!-- Background Circle with Gradient -->
  <defs>
    <linearGradient id="grad1" x1="0%" y1="0%" x2="100%" y2="100%">
      <stop offset="0%" style="stop-color:#667eea;stop-opacity:1" />
      <stop offset="100%" style="stop-color:#764ba2;stop-opacity:1" />
    </linearGradient>
    <linearGradient id="grad2" x1="0%" y1="0%" x2="100%" y2="100%">
      <stop offset="0%" style="stop-color:#ffffff;stop-opacity:1" />
      <stop offset="100%" style="stop-color:#e0e7ff;stop-opacity:1" />
    </linearGradient>
  </defs>
  
  <!-- Background -->
  <rect width="120" height="120" rx="24" fill="url(#grad1)"/>
  
  <!-- City Buildings -->
  <g transform="translate(20, 35)">
    <!-- Building 1 -->
    <rect x="0" y="30" width="18" height="35" rx="2" fill="url(#grad2)" opacity="0.9"/>
    <rect x="3" y="35" width="4" height="4" rx="1" fill="#667eea" opacity="0.6"/>
    <rect x="11" y="35" width="4" height="4" rx="1" fill="#667eea" opacity="0.6"/>
    <rect x="3" y="43" width="4" height="4" rx="1" fill="#667eea" opacity="0.6"/>
    <rect x="11" y="43" width="4" height="4" rx="1" fill="#667eea" opacity="0.6"/>
    <rect x="3" y="51" width="4" height="4" rx="1" fill="#667eea" opacity="0.6"/>
    <rect x="11" y="51" width="4" height="4" rx="1" fill="#667eea" opacity="0.6"/>
    
    <!-- Building 2 (Tallest) -->
    <rect x="22" y="15" width="20" height="50" rx="2" fill="url(#grad2)"/>
    <rect x="26" y="20" width="4" height="4" rx="1" fill="#667eea" opacity="0.6"/>
    <rect x="34" y="20" width="4" height="4" rx="1" fill="#667eea" opacity="0.6"/>
    <rect x="26" y="28" width="4" height="4" rx="1" fill="#667eea" opacity="0.6"/>
    <rect x="34" y="28" width="4" height="4" rx="1" fill="#667eea" opacity="0.6"/>
    <rect x="26" y="36" width="4" height="4" rx="1" fill="#667eea" opacity="0.6"/>
    <rect x="34" y="36" width="4" height="4" rx="1" fill="#667eea" opacity="0.6"/>
    <rect x="26" y="44" width="4" height="4" rx="1" fill="#667eea" opacity="0.6"/>
    <rect x="34" y="44" width="4" height="4" rx="1" fill="#667eea" opacity="0.6"/>
    <rect x="26" y="52" width="4" height="4" rx="1" fill="#667eea" opacity="0.6"/>
    <rect x="34" y="52" width="4" height="4" rx="1" fill="#667eea" opacity="0.6"/>
    
    <!-- Building 3 -->
    <rect x="46" y="25" width="18" height="40" rx="2" fill="url(#grad2)" opacity="0.9"/>
    <rect x="49" y="30" width="4" height="4" rx="1" fill="#667eea" opacity="0.6"/>
    <rect x="57" y="30" width="4" height="4" rx="1" fill="#667eea" opacity="0.6"/>
    <rect x="49" y="38" width="4" height="4" rx="1" fill="#667eea" opacity="0.6"/>
    <rect x="57" y="38" width="4" height="4" rx="1" fill="#667eea" opacity="0.6"/>
    <rect x="49" y="46" width="4" height="4" rx="1" fill="#667eea" opacity="0.6"/>
    <rect x="57" y="46" width="4" height="4" rx="1" fill="#667eea" opacity="0.6"/>
    <rect x="49" y="54" width="4" height="4" rx="1" fill="#667eea" opacity="0.6"/>
    <rect x="57" y="54" width="4" height="4" rx="1" fill="#667eea" opacity="0.6"/>
    
    <!-- Building 4 (Small) -->
    <rect x="68" y="40" width="14" height="25" rx="2" fill="url(#grad2)" opacity="0.9"/>
    <rect x="71" y="45" width="3" height="3" rx="1" fill="#667eea" opacity="0.6"/>
    <rect x="76" y="45" width="3" height="3" rx="1" fill="#667eea" opacity="0.6"/>
    <rect x="71" y="52" width="3" height="3" rx="1" fill="#667eea" opacity="0.6"/>
    <rect x="76" y="52" width="3" height="3" rx="1" fill="#667eea" opacity="0.6"/>
  </g>
  
  <!-- Location Pin Icon -->
  <g transform="translate(75, 25)">
    <circle cx="10" cy="10" r="12" fill="#ef4444" opacity="0.2"/>
    <path d="M10 2C6.13 2 3 5.13 3 9c0 5.25 7 13 7 13s7-7.75 7-13c0-3.87-3.13-7-7-7zm0 9.5c-1.38 0-2.5-1.12-2.5-2.5s1.12-2.5 2.5-2.5 2.5 1.12 2.5 2.5-1.12 2.5-2.5 2.5z" fill="#ef4444"/>
  </g>
</svg>
